<?xml version="1.0" encoding="UTF-8"?>
<svg width="33px" height="30px" viewBox="0 0 33 30" version="1.1" xmlns="http://www.w3.org/2000/svg" xmlns:xlink="http://www.w3.org/1999/xlink">
    <!-- Generator: Sketch 52.4 (67378) - http://www.bohemiancoding.com/sketch -->
    <title>currency-switcher</title>
    <desc>Created with Sketch.</desc>
    <g id="hi-fi" stroke="none" stroke-width="1" fill="none" fill-rule="evenodd">
        <g id="currency-switcher" fill="#D1E3FF">
            <g id="arrow" transform="translate(16.500000, 15.000000) rotate(90.000000) translate(-16.500000, -15.000000) translate(1.500000, -1.500000)">
                <path d="M28.6363657,6.66669259 L4.65576567,6.66669259 L9.1460316,2.27612701 C9.67857624,1.75550623 9.67857624,0.911241913 9.1460316,0.390532249 C8.61357786,-0.130177416 7.75012462,-0.130177416 7.21757997,0.390532249 L0.399408486,7.0571804 C-0.133136162,7.57780117 -0.133136162,8.42206549 0.399408486,8.94277516 L7.21757997,15.6094233 C7.4838523,15.8697781 7.83285177,16 8.18185124,16 C8.53085071,16 8.87985018,15.8697781 9.1460316,15.6094233 C9.67857624,15.0888025 9.67857624,14.2445382 9.1460316,13.7238285 L4.65576567,9.33335185 L28.6363657,9.33335185 C29.3894555,9.33335185 30,8.73637573 30,8.00002222 C30,7.26366871 29.3894555,6.66669259 28.6363657,6.66669259 Z" id="XMLID_17_"></path>
                <path d="M22.7823982,17.3904672 C22.2499428,16.8698443 21.3864869,16.8698443 20.8539407,17.3904672 C20.3213944,17.9110902 20.3213944,18.755358 20.8539407,19.2760698 L25.3443111,23.6666537 L1.36363843,23.6666537 C0.61054638,23.6666537 -1.8369702e-16,24.2636323 -1.8369702e-16,24.9999889 C-1.8369702e-16,25.7363455 0.61054638,26.3333241 1.36363843,26.3333241 L25.3443111,26.3333241 L20.8540316,30.7239079 C20.3214853,31.2445309 20.3214853,32.0887987 20.8540316,32.6095106 C21.1202138,32.8697776 21.4692143,33 21.8182149,33 C22.1672154,33 22.5162159,32.8697776 22.7823982,32.6094217 L29.6005903,25.9427458 C30.1331366,25.4221228 30.1331366,24.577855 29.6005903,24.0571431 L22.7823982,17.3904672 Z" id="XMLID_18_"></path>
            </g>
        </g>
    </g>
</svg>